HIERARCHY
ROOT reference
{
  OFFSET 0 0 0
  CHANNELS 6 Xposition Yposition Zposition Zrotation Xrotation Yrotation
  JOINT Hips
  {
    OFFSET 8.1203 89.3817 12.9612
    CHANNELS 3 Zrotation Xrotation Yrotation
    JOINT RightUpLeg
    {
      OFFSET -9.1608 -1.55382 -0.12893
      CHANNELS 3 Zrotation Xrotation Yrotation
      JOINT RightLeg
      {
        OFFSET 0.06374 -41.8922 -0.177796
        CHANNELS 3 Zrotation Xrotation Yrotation
        JOINT RightFoot
        {
          OFFSET 0.813904 -38.7435 -0.562088
          CHANNELS 3 Zrotation Xrotation Yrotation
          End Site
          {
            OFFSET 0 -7.69 17.5
          }
        }
      }
    }
    JOINT LeftUpLeg
    {
      OFFSET 9.31092 -1.63604 -0.0839322
      CHANNELS 3 Zrotation Xrotation Yrotation
      JOINT LeftLeg
      {
        OFFSET 0.0822586 -41.8846 0.0179678
        CHANNELS 3 Zrotation Xrotation Yrotation
        JOINT LeftFoot
        {
          OFFSET -2.12103 -44.4135 0.320981
          CHANNELS 3 Zrotation Xrotation Yrotation
          End Site
          {
            OFFSET 0 -7.69 17.5
          }
        }
      }
    }
    JOINT Spine
    {
      OFFSET 0.00360605 14.3003 0.0451097
      CHANNELS 3 Zrotation Xrotation Yrotation
      JOINT Spine1
      {
        OFFSET -0.00655277 9.70852 0.00756624
        CHANNELS 3 Zrotation Xrotation Yrotation
        JOINT Spine2
        {
          OFFSET 0.0271615 10.1148 -0.0101208
          CHANNELS 3 Zrotation Xrotation Yrotation
          JOINT Spine3
          {
            OFFSET 0.0177035 9.71869 0.0161839
            CHANNELS 3 Zrotation Xrotation Yrotation
            JOINT Neck
            {
              OFFSET -0.0236965 10.3849 -0.121818
              CHANNELS 3 Zrotation Xrotation Yrotation
              JOINT Head
              {
                OFFSET -0.155156 9.41763 -0.00386886
                CHANNELS 3 Zrotation Xrotation Yrotation
                End Site
                {
                  OFFSET 0 15.95 0
                }
              }
            }
            JOINT RightShoulder
            {
              OFFSET -3.20078 6.92891 -0.0108278
              CHANNELS 3 Zrotation Xrotation Yrotation
              JOINT RightArm
              {
                OFFSET -12.7398 0.00570667 0.0152916
                CHANNELS 3 Zrotation Xrotation Yrotation
                JOINT RightForeArm
                {
                  OFFSET -26.5293 0.00103985 0.0518282
                  CHANNELS 3 Zrotation Xrotation Yrotation
                  JOINT RightHand
                  {
                    OFFSET -25.9797 -0.0368484 -0.00950436
                    CHANNELS 3 Zrotation Xrotation Yrotation
                    JOINT RightHandThumb1
                    {
                      OFFSET -2.48905 0.190105 3.12053
                      CHANNELS 3 Zrotation Xrotation Yrotation
                      JOINT RightHandThumb2
                      {
                        OFFSET -3.68274 0 0
                        CHANNELS 3 Zrotation Xrotation Yrotation
                        JOINT RightHandThumb3
                        {
                          OFFSET -2.55832 0 0
                          CHANNELS 3 Zrotation Xrotation Yrotation
                          End Site
                          {
                            OFFSET -2.194 0 0
                          }
                        }
                      }
                    }
                    JOINT RightInHandIndex
                    {
                      OFFSET -3.22368 0.508421 1.97842
                      CHANNELS 3 Zrotation Xrotation Yrotation
                      JOINT RightHandIndex1
                      {
                        OFFSET -5.21684 -0.091368 0.999158
                        CHANNELS 3 Zrotation Xrotation Yrotation
                        JOINT RightHandIndex2
                        {
                          OFFSET -3.61937 0 0
                          CHANNELS 3 Zrotation Xrotation Yrotation
                          JOINT RightHandIndex3
                          {
                            OFFSET -2.0521 0 0
                            CHANNELS 3 Zrotation Xrotation Yrotation
                            End Site
                            {
                              OFFSET -1.805 0 0
                            }
                          }
                        }
                      }
                    }
                    JOINT RightInHandMiddle
                    {
                      OFFSET -3.38211 0.517263 0.756737
                      CHANNELS 3 Zrotation Xrotation Yrotation
                      JOINT RightHandMiddle1
                      {
                        OFFSET -5.17411 -0.084 0.313895
                        CHANNELS 3 Zrotation Xrotation Yrotation
                        JOINT RightHandMiddle2
                        {
                          OFFSET -3.94947 0 0
                          CHANNELS 3 Zrotation Xrotation Yrotation
                          JOINT RightHandMiddle3
                          {
                            OFFSET -2.47579 0 0
                            CHANNELS 3 Zrotation Xrotation Yrotation
                            End Site
                            {
                              OFFSET -1.975 0 0
                            }
                          }
                        }
                      }
                    }
                    JOINT RightInHandRing
                    {
                      OFFSET -3.36516 0.537895 -0.128947
                      CHANNELS 3 Zrotation Xrotation Yrotation
                      JOINT RightHandRing1
                      {
                        OFFSET -4.63474 -0.022105 -0.478947
                        CHANNELS 3 Zrotation Xrotation Yrotation
                        JOINT RightHandRing2
                        {
                          OFFSET -3.44238 0 0
                          CHANNELS 3 Zrotation Xrotation Yrotation
                          JOINT RightHandRing3
                          {
                            OFFSET -2.3881 0 0
                            CHANNELS 3 Zrotation Xrotation Yrotation
                            End Site
                            {
                              OFFSET -1.857 0 0
                            }
                          }
                        }
                      }
                    }
                    JOINT RightInHandPinky
                    {
                      OFFSET -3.16105 0.469368 -1.20179
                      CHANNELS 3 Zrotation Xrotation Yrotation
                      JOINT RightHandPinky1
                      {
                        OFFSET -4.14105 -0.022105 -1.09053
                        CHANNELS 3 Zrotation Xrotation Yrotation
                        JOINT RightHandPinky2
                        {
                          OFFSET -2.75653 0 0
                          CHANNELS 3 Zrotation Xrotation Yrotation
                          JOINT RightHandPinky3
                          {
                            OFFSET -1.74189 0 0
                            CHANNELS 3 Zrotation Xrotation Yrotation
                            End Site
                            {
                              OFFSET -1.645 0 0
                            }
                          }
                        }
                      }
                    }
                  }
                }
              }
            }
            JOINT LeftShoulder
            {
              OFFSET 3.22441 6.9052 0.00586093
              CHANNELS 3 Zrotation Xrotation Yrotation
              JOINT LeftArm
              {
                OFFSET 12.8603 -0.110614 -0.0841838
                CHANNELS 3 Zrotation Xrotation Yrotation
                JOINT LeftForeArm
                {
                  OFFSET 26.469 -0.0456773 -0.084058
                  CHANNELS 3 Zrotation Xrotation Yrotation
                  JOINT LeftHand
                  {
                    OFFSET 25.9786 0.0106968 0.000806877
                    CHANNELS 3 Zrotation Xrotation Yrotation
                    JOINT LeftHandThumb1
                    {
                      OFFSET 2.48905 0.190105 3.12053
                      CHANNELS 3 Zrotation Xrotation Yrotation
                      JOINT LeftHandThumb2
                      {
                        OFFSET 3.68274 0 0
                        CHANNELS 3 Zrotation Xrotation Yrotation
                        JOINT LeftHandThumb3
                        {
                          OFFSET 2.55832 0 0
                          CHANNELS 3 Zrotation Xrotation Yrotation
                          End Site
                          {
                            OFFSET 2.194 0 0
                          }
                        }
                      }
                    }
                    JOINT LeftInHandIndex
                    {
                      OFFSET 3.22368 0.508421 1.97842
                      CHANNELS 3 Zrotation Xrotation Yrotation
                      JOINT LeftHandIndex1
                      {
                        OFFSET 5.21684 -0.091368 0.999158
                        CHANNELS 3 Zrotation Xrotation Yrotation
                        JOINT LeftHandIndex2
                        {
                          OFFSET 3.61937 0 0
                          CHANNELS 3 Zrotation Xrotation Yrotation
                          JOINT LeftHandIndex3
                          {
                            OFFSET 2.0521 0 0
                            CHANNELS 3 Zrotation Xrotation Yrotation
                            End Site
                            {
                              OFFSET 1.805 0 0
                            }
                          }
                        }
                      }
                    }
                    JOINT LeftInHandMiddle
                    {
                      OFFSET 3.38211 0.517263 0.756737
                      CHANNELS 3 Zrotation Xrotation Yrotation
                      JOINT LeftHandMiddle1
                      {
                        OFFSET 5.17411 -0.084 0.313895
                        CHANNELS 3 Zrotation Xrotation Yrotation
                        JOINT LeftHandMiddle2
                        {
                          OFFSET 3.94947 0 0
                          CHANNELS 3 Zrotation Xrotation Yrotation
                          JOINT LeftHandMiddle3
                          {
                            OFFSET 2.47579 0 0
                            CHANNELS 3 Zrotation Xrotation Yrotation
                            End Site
                            {
                              OFFSET 1.975 0 0
                            }
                          }
                        }
                      }
                    }
                    JOINT LeftInHandRing
                    {
                      OFFSET 3.36516 0.537895 -0.128947
                      CHANNELS 3 Zrotation Xrotation Yrotation
                      JOINT LeftHandRing1
                      {
                        OFFSET 4.63474 -0.022105 -0.478947
                        CHANNELS 3 Zrotation Xrotation Yrotation
                        JOINT LeftHandRing2
                        {
                          OFFSET 3.44238 0 0
                          CHANNELS 3 Zrotation Xrotation Yrotation
                          JOINT LeftHandRing3
                          {
                            OFFSET 2.3881 0 0
                            CHANNELS 3 Zrotation Xrotation Yrotation
                            End Site
                            {
                              OFFSET 1.857 0 0
                            }
                          }
                        }
                      }
                    }
                    JOINT LeftInHandPinky
                    {
                      OFFSET 3.16105 0.469368 -1.20179
                      CHANNELS 3 Zrotation Xrotation Yrotation
                      JOINT LeftHandPinky1
                      {
                        OFFSET 4.14105 -0.022105 -1.09053
                        CHANNELS 3 Zrotation Xrotation Yrotation
                        JOINT LeftHandPinky2
                        {
                          OFFSET 2.75653 0 0
                          CHANNELS 3 Zrotation Xrotation Yrotation
                          JOINT LeftHandPinky3
                          {
                            OFFSET 1.74189 0 0
                            CHANNELS 3 Zrotation Xrotation Yrotation
                            End Site
                            {
                              OFFSET 1.645 0 0
                            }
                          }
                        }
                      }
                    }
                  }
                }
              }
            }
          }
        }
      }
    }
  }
}
MOTION
Frames:	4
Frame Time:	0.00833333
0 0 0 0 0 -0 23.3202 -22.3586 -159.823 32.8124 -36.5021 27.5995 -8.23671 8.75993 35.0488 4.96007 7.85334 75.3842 35.1545 -13.3906 26.0903 10.2838 7.30055 -4.30524 12.8461 -12.9601 13.3312 -9.77763 14.1948 -9.17313 -2.62843 3.09632 -3.0523 -4.20591 4.73662 -5.28722 -1.19724 -1.3307 2.48575 -11.0667 -5.09621 40.934 -19.1418 -10.1521 20.2973 -0.943161 -6.49709 4.46671 63.4866 2.96559 51.9414 -94.2077 -71.5074 -60.6221 13.3939 -16.9036 10.5749 28.184 10.7294 19.1592 2.80409e-16 1.59028e-15 -10 9.89917e-15 1.19271e-15 -10 3.18055e-15 -2.98177e-16 -2.48481e-16 19.9818 0.871897 2.3964 24 3.03147e-15 2.5842e-15 20 9.19379e-15 6.36111e-14 3.18055e-15 -2.98177e-16 -2.48481e-16 20 -1.39149e-15 9.69075e-16 24 5.90142e-17 1.22253e-14 20 1.15357e-14 6.67916e-14 3.18055e-15 -2.98177e-16 -2.48481e-16 19.9748 -1.02565 -2.81938 24 4.05024e-15 5.76476e-15 20 1.12313e-14 6.83819e-14 3.18055e-15 -2.98177e-16 -2.48481e-16 19.7815 -3.00948 -8.30515 24 2.68359e-15 7.15625e-15 20 1.19271e-14 6.67916e-14 -16.0397 -28.9732 -20.2751 7.78324 60.0406 -125.911 -3.83381 -18.8203 -12.8304 -17.0181 3.21662 -3.00468 -28.184 10.7294 -19.1592 -3.36982e-15 7.95139e-16 10 2.80409e-16 -1.59028e-15 10 5.17255e-34 -3.97569e-16 7.45443e-17 -19.9818 0.871897 -2.3964 -24 3.18055e-15 -6.75868e-15 -20 7.95139e-16 -0 5.17255e-34 -3.97569e-16 7.45443e-17 -20 1.19271e-15 -4.17448e-15 -24 -3.97569e-16 -5.56597e-15 -20 4.17448e-15 -1.98785e-15 5.17255e-34 -3.97569e-16 7.45443e-17 -19.9748 -1.02565 2.81938 -24 -1.98785e-15 -4.17448e-15 -20 1.59028e-15 -2.38542e-15 5.17255e-34 -3.97569e-16 7.45443e-17 -19.7815 -3.00948 8.30515 -24 1.78906e-15 -8.74653e-15 -20 1.39149e-15 -3.97569e-15 
0 0 0 0 0 -0 23.3093 -22.396 -159.754 32.7149 -36.6242 27.5211 -8.22555 8.79077 34.9809 4.98868 7.85336 75.4661 35.1463 -13.4578 26.1149 10.1858 7.33207 -4.2514 12.7733 -13.042 13.2556 -9.77816 14.2129 -9.14713 -2.62805 3.10175 -3.04687 -4.20473 4.74532 -5.27925 -1.19892 -1.33023 2.48577 -11.0695 -5.07838 40.9022 -19.1567 -10.1076 20.267 -0.955737 -6.48985 4.4499 63.4478 3.03367 51.945 -94.738 -71.5835 -61.2395 13.3587 -16.8487 10.6878 28.184 10.7294 19.1592 -3.22962e-15 0 -10 3.61518e-15 2.18663e-15 -10 -3.18055e-15 4.09993e-16 1.61513e-16 19.9818 0.871897 2.3964 24 2.06239e-15 9.93923e-15 20 2.18663e-15 1.41137e-14 -3.18055e-15 4.09993e-16 1.61513e-16 20 6.4605e-16 -4.96962e-16 24 -2.32951e-17 1.13804e-14 20 1.19271e-15 9.64106e-15 -3.18055e-15 4.09993e-16 1.61513e-16 19.9748 -1.02565 -2.81938 24 4.22417e-16 1.59028e-14 20 5.81445e-15 2.40529e-14 -3.18055e-15 4.09993e-16 1.61513e-16 19.7815 -3.00948 -8.30515 24 2.38542e-15 1.03368e-14 20 3.18055e-15 1.19271e-14 -16.0841 -28.9567 -20.3504 7.77692 60.0621 -125.876 -3.80147 -18.7526 -12.8017 -16.8888 3.15073 -2.80353 -28.184 10.7294 -19.1592 -7.01022e-16 3.97569e-15 10 9.96927e-15 -1.59028e-15 10 -3.97569e-16 3.97569e-16 7.95139e-16 -19.9818 0.871897 -2.3964 -24 -3.97569e-15 7.15625e-15 -20 1.39149e-15 7.55382e-15 -3.97569e-16 3.97569e-16 7.95139e-16 -20 0 7.95139e-15 -24 -3.97569e-16 9.93923e-15 -20 1.59028e-15 8.74653e-15 -3.97569e-16 3.97569e-16 7.95139e-16 -19.9748 -1.02565 2.81938 -24 -2.38542e-15 6.36111e-15 -20 -2.98177e-15 1.03368e-14 -3.97569e-16 3.97569e-16 7.95139e-16 -19.7815 -3.00948 8.30515 -24 -1.59028e-15 9.93923e-15 -20 -1.39149e-15 1.03368e-14 
0 0 0 0 0 -0 23.2919 -22.4319 -159.679 32.6047 -36.7541 27.4235 -8.21205 8.82588 34.91 5.01354 7.8349 75.5567 35.121 -13.5242 26.1518 10.096 7.34793 -4.19564 12.6584 -13.1176 13.1748 -9.78055 14.2343 -9.1199 -2.62762 3.10793 -3.04145 -4.20344 4.75508 -5.2714 -1.20076 -1.32977 2.48446 -11.0897 -5.06728 40.872 -19.1991 -10.0778 20.2292 -0.973565 -6.46916 4.42496 63.4136 3.08565 51.9664 -95.209 -71.6503 -61.8038 13.2929 -16.7772 10.8853 28.184 10.7294 19.1592 -8.84763e-15 4.77083e-15 -10 -3.01931e-15 1.19271e-15 -10 -6.36111e-15 3.23025e-16 1.73937e-16 19.9818 0.871897 2.3964 24 -5.51627e-15 -2.78299e-15 20 -9.69075e-15 -5.04913e-14 -6.36111e-15 3.23025e-16 1.73937e-16 20 -1.85118e-15 -7.50412e-15 24 -1.62444e-15 -1.43125e-14 20 -5.92627e-15 -3.44394e-14 -6.36111e-15 3.23025e-16 1.73937e-16 19.9748 -1.02565 -2.81938 24 -3.03147e-15 -1.41137e-14 20 -1.78906e-15 -1.55052e-14 -6.36111e-15 3.23025e-16 1.73937e-16 19.7815 -3.00948 -8.30515 24 2.78299e-15 -2.62396e-14 20 -5.96354e-16 7.15625e-15 -16.1338 -28.9567 -20.5202 7.77844 60.0581 -125.885 -3.81994 -18.7574 -12.8258 -16.6803 3.0338 -2.5248 -28.184 10.7294 -19.1592 -8.98784e-15 -3.97569e-15 10 -2.80409e-16 1.59028e-15 10 -7.95139e-16 0 1.49089e-15 -19.9818 0.871897 -2.3964 -24 -1.19271e-15 5.1684e-15 -20 -1.98785e-15 5.1684e-15 -7.95139e-16 0 1.49089e-15 -20 -3.97569e-16 4.87022e-15 -24 -1.19271e-15 7.15625e-15 -20 -1.98785e-15 6.36111e-15 -7.95139e-16 0 1.49089e-15 -19.9748 -1.02565 2.81938 -24 7.95139e-16 -5.96354e-16 -20 -3.37934e-15 4.37326e-15 -7.95139e-16 0 1.49089e-15 -19.7815 -3.00948 8.30515 -24 -9.93923e-16 3.57812e-15 -20 -5.96354e-16 2.78299e-15 
0 0 0 0 0 -0 23.2767 -22.464 -159.595 32.4958 -36.8942 27.3052 -8.19966 8.8717 34.8555 5.03576 7.8373 75.6461 35.0863 -13.593 26.1281 10.0046 7.36125 -4.05525 12.4966 -13.1751 13.0774 -9.78382 14.2565 -9.09006 -2.62719 3.11445 -3.03529 -4.20219 4.76548 -5.26235 -1.20331 -1.3293 2.48276 -11.0974 -5.04801 40.8439 -19.2271 -10.0122 20.1976 -0.993944 -6.44359 4.39327 63.3817 3.12958 51.9948 -95.6667 -71.7053 -62.3346 13.337 -16.7944 10.7632 28.184 10.7294 19.1592 -2.80409e-16 -1.59028e-15 -10 -1.61481e-14 0 -10 4.01613e-33 -8.32411e-16 2.76435e-16 19.9818 0.871897 2.3964 24 -2.85753e-15 -1.35174e-14 20 -6.16232e-15 -3.91606e-14 4.01613e-33 -8.32411e-16 2.76435e-16 20 -2.0158e-15 -2.14315e-16 24 -2.27826e-15 -1.07095e-14 20 -1.01334e-14 -5.91633e-14 4.01613e-33 -8.32411e-16 2.76435e-16 19.9748 -1.02565 -2.81938 24 -2.93207e-15 -9.93923e-15 20 -1.53064e-14 -8.07066e-14 4.01613e-33 -8.32411e-16 2.76435e-16 19.7815 -3.00948 -8.30515 24 -4.57205e-15 -1.11319e-14 20 -1.11319e-14 -7.23576e-14 -16.1818 -28.9231 -20.6067 7.76971 60.0727 -125.838 -3.67512 -18.7913 -12.6201 -16.7716 3.1139 -2.6164 -28.184 10.7294 -19.1592 -3.50511e-16 1.98785e-15 10 -7.86128e-15 7.95139e-15 10 1.19271e-15 -3.97569e-16 1.06847e-15 -19.9818 0.871897 -2.3964 -24 -1.19271e-15 1.39149e-15 -20 1.19271e-15 -4.77083e-15 1.19271e-15 -3.97569e-16 1.06847e-15 -20 1.19271e-15 -3.27995e-15 -24 -7.95139e-16 -3.97569e-15 -20 3.97569e-16 -1.98785e-15 1.19271e-15 -3.97569e-16 1.06847e-15 -19.9748 -1.02565 2.81938 -24 3.18055e-15 -6.55989e-15 -20 7.95139e-16 -5.1684e-15 1.19271e-15 -3.97569e-16 1.06847e-15 -19.7815 -3.00948 8.30515 -24 5.96354e-16 -4.77083e-15 -20 0 -1.98785e-16 
